# xmcd
# 
# Track frame offsets:
#     150
#     24785
#     45149
#     63749
#     82105
#     98378
#     118025
#     137374
#     155159
#     182152
#     199358
#     217816
#     238167
# 
# Disc length: 3486
# 
# Revision: 1
# Processed by: cddbd v1.5.2PL0 Copyright (c) Steve Scherf et al.
# Submitted via: fre:ac v1.0.31
# 
DISCID=a90d9c0d
DTITLE=Savoy Brown - The Devil To Pay
DYEAR=2015
DGENRE=Blues
TTITLE0=Ain't Got Nobody
TTITLE1=Bad Weather Brewing
TTITLE2=Grew Up In The Blues
TTITLE3=When Love Goes Wrong
TTITLE4=Oh Rosa
TTITLE5=The Devil To Pay
TTITLE6=Stop Throwing Your Love Around
TTITLE7=Snakin'
TTITLE8=Got An Awful Feeling
TTITLE9=I've Been Drinking
TTITLE10=Watch My Woman
TTITLE11=Whiskey Headed Baby
TTITLE12=Evil Eye
EXTD=
EXTT0=
EXTT1=
EXTT2=
EXTT3=
EXTT4=
EXTT5=
EXTT6=
EXTT7=
EXTT8=
EXTT9=
EXTT10=
EXTT11=
EXTT12=
PLAYORDER=
